<?xml version="1.0" encoding="UTF-8"?>
<svg xmlns="http://www.w3.org/2000/svg" xmlns:xlink="http://www.w3.org/1999/xlink" width="1123px" height="500px" viewBox="0 0 1123 500" version="1.1">
<g id="surface1">
<path style="fill:none;stroke-width:4.214;stroke-linecap:round;stroke-linejoin:round;stroke:rgb(100%,100%,100%);stroke-opacity:1;stroke-miterlimit:4;" d="M 119.085135 48.440606 C 118.09678 48.440606 116.11543 49.062513 116.055107 50.098532 C 116.009634 50.85602 115.986433 51.614981 115.983649 52.375417 C 115.983649 55.371472 116.363214 59.151543 117.8657 63.634574 C 117.565945 63.105511 116.393839 61.225055 115.128002 59.098489 C 113.333187 56.086223 111.342556 52.401943 111.342556 50.22085 C 111.342556 49.97474 111.365757 49.747789 111.418655 49.54589 C 111.435359 49.501679 111.435359 49.458941 111.435359 49.423572 C 111.435359 49.227568 111.286874 49.149462 111.064146 49.149462 C 110.316151 49.149462 108.720863 50.03811 108.558457 51.11834 C 108.491639 51.569296 108.461014 52.024673 108.465654 52.48005 C 108.465654 56.70076 110.810793 62.271391 110.810793 64.927019 C 110.810793 65.488503 110.703141 65.929143 110.43958 66.184095 C 110.215924 66.403678 110.115696 66.561365 110.115696 66.667473 C 110.115696 66.772106 110.215924 66.826633 110.384826 66.826633 C 111.134677 66.826633 113.162429 65.867247 113.184701 64.759016 L 113.184701 64.732489 C 113.184701 62.772453 110.578785 55.698636 110.578785 52.922164 C 110.578785 52.578789 110.615906 52.306152 110.703141 52.111622 C 111.365757 55.776743 116.485715 62.317076 117.873124 66.349151 L 117.858275 66.490627 C 117.858275 66.711684 117.97428 66.798633 118.159886 66.798633 C 118.868903 66.798633 120.549571 65.479661 120.549571 64.608697 C 120.555139 64.486379 120.51709 64.365535 120.442847 64.266796 C 119.548223 63.083406 118.560796 59.767554 118.172879 56.523915 C 118.065227 55.598424 118.008617 54.668512 118.004905 53.737126 C 118.004905 51.532453 118.376118 49.705051 119.231764 49.096408 C 119.508318 48.903352 119.624322 48.754507 119.624322 48.6484 C 119.624322 48.499555 119.408091 48.439133 119.084207 48.439133 Z M 123.148991 49.765473 C 121.784783 49.765473 120.934705 50.425696 120.488321 51.523611 C 120.303642 51.973093 120.227544 52.534577 120.227544 53.10343 C 120.227544 54.195451 120.504097 55.312524 120.835405 55.732532 C 121.137944 56.217383 121.490597 56.355912 121.65393 56.479704 C 122.053913 57.649831 122.895638 58.441214 124.103937 58.441214 C 124.320169 58.441214 124.543825 58.414687 124.784186 58.361633 C 126.242125 58.044785 126.666236 56.445808 126.666236 55.020729 C 126.666236 54.336927 126.566009 53.694389 126.441652 53.253749 L 126.450005 53.253749 C 127.129325 53.253749 128.479613 54.018605 128.780296 54.730408 C 128.820201 54.837989 128.926925 54.880726 129.040145 54.880726 C 129.263801 54.880726 129.550563 54.730408 129.550563 54.528509 L 129.534786 54.460719 C 128.756167 53.035639 127.289875 52.269309 126.117769 52.060042 C 125.31502 50.670332 124.799034 50.064637 123.643633 49.792 C 123.479371 49.774315 123.314181 49.765473 123.148991 49.765473 Z M 124.668181 53.122588 C 124.884413 53.737126 125.007841 54.591879 125.007841 55.390631 C 125.007841 56.523915 124.760057 57.543723 124.213445 57.604146 L 124.152195 57.604146 C 123.457098 57.604146 122.888214 56.208541 122.888214 55.04873 L 122.895638 54.880726 C 122.948536 54.073132 123.544333 53.221327 124.668181 53.122588 Z M 122.780562 50.785282 C 123.17312 50.785282 123.61208 51.066761 123.927611 51.454347 C 124.004638 51.541296 125.177672 51.946566 125.177672 52.060042 C 125.177672 52.077727 125.138694 52.077727 125.078372 52.077727 L 124.63106 52.068885 C 124.523408 52.068885 124.407404 52.068885 124.298824 52.086569 C 124.128994 52.101306 122.849237 52.29731 122.145788 53.299434 C 122.016791 53.035639 121.929556 52.612684 121.929556 52.18236 C 121.929556 51.628245 122.069689 51.075603 122.401925 50.881073 C 122.517001 50.814756 122.647854 50.782334 122.780562 50.785282 Z M 134.392111 50.160428 L 134.247338 50.170744 C 133.620915 50.238535 132.927675 50.68949 132.927675 52.068885 C 132.927675 52.410786 132.973148 52.816056 133.073376 53.290592 C 132.341158 51.15371 131.246079 50.197271 130.351455 50.16927 L 130.30691 50.16927 C 128.988175 50.16927 128.616962 51.477926 128.616962 53.007639 C 128.616962 54.924938 129.210903 57.175296 129.279577 57.552566 C 129.348252 57.826676 129.563555 57.940152 129.828045 57.940152 C 130.374656 57.940152 131.122651 57.456774 131.122651 56.911501 C 131.122651 56.854026 131.114298 56.798025 131.09945 56.743498 C 130.898995 55.972747 130.30691 53.922814 130.30691 52.612684 C 130.30691 51.946566 130.460035 51.477926 130.907347 51.477926 L 130.947252 51.477926 C 131.909623 51.541296 133.06688 55.390631 133.327657 57.508354 C 133.413036 57.876782 133.644116 58.028575 133.923454 58.028575 C 134.515539 58.028575 135.334064 57.343299 135.358193 56.798025 C 135.025957 55.330209 134.663097 53.57207 134.608343 52.471208 L 134.602774 52.242783 C 134.602774 51.619402 134.746619 51.373293 134.978628 51.373293 C 135.703421 51.373293 137.238388 53.81818 137.601249 54.774619 C 137.664355 54.916096 137.833257 54.976518 138.004015 54.976518 C 138.187766 54.976518 138.372444 54.898411 138.372444 54.756935 L 138.35574 54.696512 C 136.913576 51.883197 135.633819 50.160428 134.392111 50.160428 Z M 138.171989 49.887791 C 137.661571 49.887791 136.998027 50.397695 136.998027 50.863388 L 136.998027 50.881073 C 137.013804 51.672456 137.578048 55.841586 137.761799 57.456774 C 137.839753 57.844361 138.084754 57.991732 138.372444 57.991732 C 138.927408 57.991732 139.636425 57.431721 139.636425 56.833394 C 139.635497 56.772972 139.628073 56.714024 139.612296 56.656549 C 139.490724 56.080328 139.393281 55.499685 139.319966 54.916096 C 139.682827 55.987484 140.546826 57.325614 141.557453 57.93131 C 141.888761 58.122892 142.242342 58.246684 142.589426 58.246684 C 142.668309 58.246684 142.744408 58.236368 142.821434 58.227526 C 143.244617 58.168577 143.368046 57.807518 143.368046 57.325614 C 143.368046 56.523915 143.020961 55.380315 143.020961 54.652301 C 143.020961 54.214609 143.145318 53.913972 143.538804 53.913972 L 143.575925 53.924288 C 143.639031 53.924288 143.668728 53.852076 143.668728 53.781338 C 143.668728 53.676704 143.615831 53.554386 143.523955 53.527859 C 143.188007 53.442384 142.843707 53.393751 142.496623 53.386383 C 141.540749 53.386383 141.317093 53.906603 141.317093 54.501983 C 141.317093 55.022203 141.486923 55.60874 141.486923 55.955062 C 141.486923 56.136329 141.441449 56.260121 141.278116 56.260121 L 141.210369 56.251278 C 140.375139 56.111276 139.179833 53.44091 138.696328 50.310746 C 138.620229 50.011583 138.408638 49.887791 138.171989 49.887791 Z M 146.238452 50.073479 C 146.151217 50.072005 146.06491 50.086742 145.983243 50.116217 C 144.719262 50.593699 144.279374 51.840459 144.279374 53.34954 C 144.279374 54.652301 144.603258 56.146645 145.00324 57.534881 C 145.089547 57.894467 145.357748 58.035943 145.674208 58.035943 C 146.269077 58.035943 147.017071 57.536355 147.017071 57.026451 C 147.019856 56.933607 146.995727 56.840763 146.949325 56.761183 C 146.608737 55.85485 146.337751 54.360506 146.337751 53.236064 C 146.337751 52.375417 146.501085 51.718141 146.901067 51.718141 C 147.185045 51.718141 147.603588 52.0512 148.166904 52.85732 C 148.652266 53.564702 149.107002 54.397349 149.283328 54.880726 C 149.346434 55.020729 149.515336 55.084099 149.686094 55.084099 C 149.878197 55.084099 150.061948 55.004518 150.061948 54.87041 L 150.047099 54.811462 C 149.816947 54.133555 149.439238 53.386383 148.990998 52.702581 C 148.466659 51.902355 147.209174 50.073479 146.238452 50.073479 Z M 146.98459 59.220807 C 146.553055 59.220807 145.952618 59.547971 145.890439 59.811766 C 145.868167 59.914926 145.858886 60.021033 145.860742 60.12714 C 145.860742 60.822732 146.184626 61.911805 146.524286 62.317076 C 146.584608 62.395182 146.717317 62.421709 146.868586 62.421709 C 147.37158 62.421709 148.173401 62.08865 148.173401 61.665695 L 148.173401 61.655379 C 148.173401 61.015788 147.740937 59.776397 147.325178 59.338704 C 147.24908 59.25765 147.124723 59.220807 146.98459 59.220807 Z M 150.742196 49.537048 C 149.79189 49.537048 148.99935 50.001267 148.99935 51.137499 C 148.99935 51.339397 149.022551 51.576665 149.082873 51.831617 C 149.115354 51.980462 149.207229 52.042358 149.290752 52.042358 C 149.39098 52.042358 149.482855 51.973093 149.506984 51.846354 C 149.607211 51.472031 149.962648 51.321713 150.36263 51.321713 C 151.096704 51.321713 152.012673 51.796248 152.012673 52.269309 C 151.996896 52.981112 148.959444 53.236064 148.959444 55.408315 C 148.959444 55.60874 148.990998 55.822428 149.043895 56.059696 C 149.476359 57.876782 151.181155 58.687324 152.524019 58.687324 C 153.0001 58.687324 153.431635 58.591532 153.748095 58.397003 C 154.202831 58.122892 154.373589 57.508354 154.373589 56.938028 C 154.373589 56.286647 154.158285 55.689794 153.879875 55.689794 C 153.818625 55.689794 153.756447 55.716321 153.686844 55.785585 C 153.646939 56.456124 153.164362 56.734656 152.591766 56.734656 C 151.921726 56.734656 151.126401 56.332332 150.849848 55.663267 C 150.769109 55.47758 150.723635 55.278629 150.718067 55.075256 C 150.718067 53.791654 153.084551 53.922814 153.695197 52.561104 C 153.802849 52.323837 153.848322 52.086569 153.848322 51.865512 C 153.848322 50.539172 152.137029 49.537048 150.742196 49.537048 Z M 157.695947 50.001267 C 157.155832 50.001267 155.993006 50.68949 155.9299 51.208237 C 155.88257 51.566349 155.860298 51.927408 155.862154 52.288468 C 155.862154 53.992078 156.232439 56.277805 156.461663 57.704358 C 156.779978 59.670289 157.15676 61.938332 157.15676 62.844664 C 157.15676 63.027405 157.140983 63.151196 157.112214 63.214566 C 156.987858 63.425307 156.932176 63.582994 156.932176 63.69647 C 156.932176 63.852683 157.040756 63.924895 157.212442 63.924895 C 157.83608 63.924895 159.279171 62.959614 159.279171 61.835172 L 159.263395 61.639168 C 158.891253 59.125016 158.12841 56.778867 157.860209 54.028921 C 158.714927 56.979292 160.042014 57.991732 161.128741 57.991732 C 161.375598 57.991732 161.607606 57.941626 161.816413 57.850256 C 162.479029 57.580566 162.696189 56.964555 162.696189 56.233594 C 162.696189 54.898411 161.968611 53.140273 161.968611 52.260467 C 161.968611 52.061516 162.009444 51.911197 162.092039 51.813932 C 162.149577 51.746142 162.234956 51.706351 162.324047 51.709299 C 163.010792 51.709299 164.374072 53.641335 164.838089 54.774619 C 164.921612 54.976518 165.177749 55.085572 165.401405 55.085572 C 165.585155 55.085572 165.741065 55.011887 165.741065 54.861568 C 165.739209 54.829147 165.730856 54.796725 165.716936 54.765777 C 164.776838 52.858794 163.194542 50.179586 161.736602 50.179586 C 161.576981 50.179586 161.412719 50.214955 161.259593 50.28422 C 160.481902 50.634963 160.249894 51.399819 160.249894 52.260467 C 160.249894 53.501332 160.721334 54.942622 160.721334 55.716321 C 160.721334 55.996326 160.658228 56.190856 160.49675 56.251278 C 160.4355 56.276331 160.368682 56.288121 160.301863 56.286647 C 159.053659 56.286647 157.888978 51.874355 157.888978 50.574541 L 157.89733 50.434538 C 157.930739 50.3638 157.9493 50.285693 157.952084 50.206113 C 157.952084 50.06611 157.851856 50.001267 157.695947 50.001267 Z M 175.635752 48.288814 C 174.996338 48.288814 173.261844 48.844403 173.029836 50.188428 C 173.019627 50.259167 173.014059 50.328431 173.014059 50.399169 C 173.014059 52.129307 174.788458 59.970927 174.788458 63.248461 C 174.788458 64.039845 174.688231 64.567433 174.424669 64.672067 C 173.878058 64.532064 171.016004 63.574152 171.016004 61.895594 C 171.016004 61.578746 171.123656 61.233898 171.364016 60.86547 C 171.379793 60.846311 171.387217 60.831574 171.387217 60.815363 C 171.387217 60.759362 171.335247 60.709256 171.311119 60.709256 L 171.302766 60.709256 C 170.747803 60.778521 169.844827 62.35834 169.844827 63.625732 C 169.844827 63.976475 169.914429 64.312481 170.085187 64.576276 C 171.219243 66.34473 176.947063 67.696123 180.155273 67.696123 C 180.663835 67.696123 181.102794 67.659281 181.459159 67.59149 C 181.905543 67.501593 182.524541 66.060303 182.524541 65.33229 C 182.524541 65.077338 182.454011 64.909335 182.277684 64.909335 L 182.277684 64.927019 C 182.277684 65.410396 181.306034 65.601979 180.016068 65.601979 C 178.444908 65.601979 176.398595 65.314605 175.073364 64.89165 C 176.263103 64.353745 176.862612 63.985317 176.931286 62.737083 L 176.938711 62.492447 C 176.938711 60.084402 175.304444 53.713547 175.304444 50.406538 C 175.304444 49.458941 175.443649 48.754507 175.790734 48.480397 C 175.843632 48.439133 175.86776 48.40229 175.86776 48.375763 C 175.86776 48.315341 175.784238 48.288814 175.635752 48.288814 Z M 183.025679 49.765473 C 181.662398 49.765473 180.81232 50.425696 180.36408 51.523611 C 180.18033 51.973093 180.104231 52.534577 180.104231 53.10343 C 180.104231 54.195451 180.379857 55.312524 180.711165 55.732532 C 181.013703 56.217383 181.367284 56.355912 181.530618 56.479704 C 181.9306 57.649831 182.773254 58.441214 183.980625 58.441214 C 184.196856 58.441214 184.42144 58.414687 184.659945 58.361633 C 186.117885 58.044785 186.541996 56.445808 186.541996 55.020729 C 186.541996 54.336927 186.441768 53.694389 186.31834 53.253749 L 186.325764 53.253749 C 187.006012 53.253749 188.3563 54.018605 188.656055 54.730408 C 188.69596 54.837989 188.802684 54.880726 188.915904 54.880726 C 189.13956 54.880726 189.42725 54.730408 189.42725 54.528509 L 189.410546 54.460719 C 188.631926 53.035639 187.165634 52.269309 185.994456 52.060042 C 185.191708 50.670332 184.675721 50.064637 183.52032 49.792 C 183.355131 49.774315 183.189941 49.765473 183.024751 49.765473 Z M 184.543941 53.122588 C 184.760172 53.737126 184.883601 54.591879 184.883601 55.390631 C 184.883601 56.523915 184.635816 57.543723 184.089205 57.604146 L 184.027954 57.604146 C 183.332858 57.604146 182.763974 56.208541 182.763974 55.04873 L 182.773254 54.880726 C 182.825224 54.073132 183.420093 53.221327 184.543941 53.122588 Z M 182.65725 50.785282 C 183.04888 50.785282 183.488767 51.066761 183.804298 51.454347 C 183.881325 51.541296 185.054359 51.946566 185.054359 52.060042 C 185.054359 52.077727 185.015382 52.077727 184.954131 52.077727 L 184.506819 52.068885 C 184.399168 52.068885 184.283163 52.068885 184.174584 52.086569 C 184.004754 52.101306 182.724996 52.29731 182.021547 53.299434 C 181.892551 53.035639 181.806243 52.612684 181.806243 52.18236 C 181.806243 51.628245 181.946376 51.075603 182.277684 50.881073 C 182.393688 50.814756 182.524541 50.782334 182.65725 50.785282 Z M 198.788319 47.718488 C 198.211082 47.718488 196.613938 48.315341 196.453388 49.678524 C 196.436683 49.809685 196.428331 49.942319 196.430187 50.073479 C 196.430187 51.831617 197.376781 55.567476 197.58466 56.929186 C 197.168901 56.920343 195.619086 56.647707 195.619086 56.146645 C 195.503082 56.155487 195.426055 56.463493 195.426055 56.848132 C 195.426055 57.235718 195.503082 57.6852 195.67384 57.968152 C 195.920697 58.36016 197.053825 58.538479 197.888127 58.659323 C 198.087654 59.776397 198.672315 61.95749 198.672315 63.223408 C 198.672315 63.715628 198.587864 64.076687 198.348431 64.171005 C 197.787899 64.084056 194.977815 63.328042 194.977815 61.612641 C 194.977815 61.297267 195.070619 60.964208 195.28685 60.585464 C 195.302627 60.56778 195.302627 60.550095 195.302627 60.532411 C 195.302627 60.477883 195.249729 60.426304 195.227456 60.426304 L 195.218176 60.426304 C 194.687341 60.541253 193.900369 62.097493 193.900369 63.336884 C 193.900369 63.739207 193.97554 64.107635 194.184347 64.390588 C 195.258081 65.848089 199.737697 66.693999 202.621095 66.693999 C 203.547272 66.693999 204.302691 66.612945 204.735154 66.430205 C 205.158337 66.306413 205.6901 64.909335 205.6901 64.15332 C 205.6901 63.870368 205.614001 63.678785 205.437675 63.678785 L 205.412618 63.678785 L 205.412618 63.721523 C 205.412618 64.364061 203.911061 64.64554 202.188632 64.64554 C 201.101905 64.64554 199.93908 64.530591 199.003623 64.330166 C 200.177584 63.680259 200.762245 63.248461 200.762245 61.981069 C 200.762245 61.251582 200.570142 60.259774 200.194289 58.8008 C 200.601695 58.811116 201.19378 58.837642 201.712551 58.837642 C 202.188632 58.837642 202.608103 58.809642 202.767724 58.722693 C 202.91621 58.643112 202.975604 58.458898 202.975604 58.227526 C 202.975604 57.589409 202.500451 56.596127 202.168215 56.596127 L 202.144086 56.596127 C 202.144086 57.042661 201.39702 57.157611 200.537661 57.157611 C 199.730272 57.157611 198.818944 57.060346 198.318734 57.035293 C 198.318734 57.035293 199.606844 56.578442 199.606844 56.04938 L 199.59942 55.987484 C 199.243055 54.255873 198.627769 51.127183 198.627769 49.290938 C 198.627769 48.621873 198.71222 48.120811 198.9201 47.929228 C 198.974853 47.876175 198.996198 47.833437 198.996198 47.805437 C 198.996198 47.743541 198.9201 47.718488 198.788319 47.718488 Z M 206.687736 50.082321 C 206.609781 50.082321 206.530898 50.092637 206.455727 50.116217 C 205.314247 50.493487 204.960666 51.846354 204.960666 53.563228 C 204.960666 56.559284 206.068738 60.628202 206.068738 62.395182 C 206.068738 62.704662 206.032544 62.940456 205.952733 63.090774 C 205.833017 63.292673 205.777335 63.45036 205.777335 63.565309 C 205.777335 63.730365 205.893339 63.802577 206.068738 63.802577 C 206.711864 63.802577 208.198573 62.835822 208.198573 61.702538 L 208.182797 61.515376 C 208.090921 60.831574 207.72806 59.220807 207.367056 57.386036 C 207.236203 56.718445 206.848285 54.583037 206.848285 53.10343 C 206.848285 52.269309 206.971714 51.645929 207.343855 51.645929 C 207.620409 51.645929 208.038023 51.996673 208.639389 52.85732 C 209.133102 53.564702 209.578558 54.397349 209.765093 54.880726 C 209.825415 55.020729 209.997101 55.084099 210.156723 55.084099 C 210.349754 55.084099 210.537216 55.004518 210.537216 54.87041 L 210.52144 54.811462 C 210.289431 54.133555 209.909866 53.386383 209.465338 52.702581 C 208.930791 51.892039 207.675163 50.082321 206.687736 50.082321 Z M 212.286558 49.765473 C 210.923278 49.765473 210.0732 50.425696 209.62496 51.523611 C 209.441209 51.973093 209.365111 52.534577 209.365111 53.10343 C 209.365111 54.195451 209.640736 55.312524 209.972972 55.732532 C 210.276439 56.217383 210.629092 56.355912 210.792425 56.479704 C 211.192408 57.649831 212.034133 58.441214 213.242432 58.441214 C 213.457736 58.441214 213.68232 58.414687 213.921753 58.361633 C 215.379692 58.044785 215.803803 56.445808 215.803803 55.020729 C 215.803803 54.336927 215.703576 53.694389 215.580147 53.253749 L 215.587572 53.253749 C 216.266892 53.253749 217.618108 54.018605 217.917863 54.730408 C 217.95684 54.837989 218.06542 54.880726 218.177712 54.880726 C 218.402296 54.880726 218.68813 54.730408 218.68813 54.528509 L 218.673281 54.460719 C 217.892806 53.035639 216.42837 52.269309 215.256264 52.060042 C 214.452587 50.670332 213.936601 50.064637 212.782128 49.792 C 212.617866 49.774315 212.452676 49.765473 212.286558 49.765473 Z M 213.805748 53.122588 C 214.02198 53.737126 214.146337 54.591879 214.146337 55.390631 C 214.146337 56.523915 213.897624 57.543723 213.351012 57.604146 L 213.289762 57.604146 C 212.594665 57.604146 212.025781 56.208541 212.025781 55.04873 L 212.034133 54.880726 C 212.087031 54.073132 212.6819 53.221327 213.805748 53.122588 Z M 211.919057 50.785282 C 212.309759 50.785282 212.749647 51.066761 213.066106 51.454347 C 213.142205 51.541296 214.316167 51.946566 214.316167 52.060042 C 214.316167 52.077727 214.277189 52.077727 214.215939 52.077727 L 213.768627 52.068885 C 213.660975 52.068885 213.544971 52.068885 213.437319 52.086569 C 213.266561 52.101306 211.986804 52.29731 211.284283 53.299434 C 211.155286 53.035639 211.068051 52.612684 211.068051 52.18236 C 211.068051 51.628245 211.208184 51.075603 211.538564 50.881073 C 211.654568 50.814756 211.786349 50.782334 211.919057 50.785282 Z M 223.529678 50.160428 L 223.384905 50.170744 C 222.759411 50.238535 222.06617 50.68949 222.06617 52.068885 C 222.06617 52.410786 222.110715 52.816056 222.210943 53.290592 C 221.478725 51.15371 220.383646 50.197271 219.489022 50.16927 L 219.445405 50.16927 C 218.124814 50.16927 217.755457 51.477926 217.755457 53.007639 C 217.755457 54.924938 218.349398 57.175296 218.418072 57.552566 C 218.485819 57.826676 218.70205 57.940152 218.965612 57.940152 C 219.513151 57.940152 220.260218 57.456774 220.260218 56.911501 C 220.260218 56.854026 220.252793 56.798025 220.237017 56.743498 C 220.036562 55.972747 219.445405 53.922814 219.445405 52.612684 C 219.445405 51.946566 219.596674 51.477926 220.044914 51.477926 L 220.08482 51.477926 C 221.048118 51.541296 222.205375 55.390631 222.466152 57.508354 C 222.550603 57.876782 222.781683 58.028575 223.061021 58.028575 C 223.654034 58.028575 224.471631 57.343299 224.49576 56.798025 C 224.164452 55.330209 223.800664 53.57207 223.74591 52.471208 L 223.741269 52.242783 C 223.741269 51.619402 223.885115 51.373293 224.117123 51.373293 C 224.840988 51.373293 226.375955 53.81818 226.738816 54.774619 C 226.801922 54.916096 226.970824 54.976518 227.140654 54.976518 C 227.326261 54.976518 227.510939 54.898411 227.510939 54.756935 L 227.494235 54.696512 C 226.052072 51.883197 224.772314 50.160428 223.529678 50.160428 Z M 227.309556 49.887791 C 226.800066 49.887791 226.135594 50.397695 226.135594 50.863388 L 226.135594 50.881073 C 226.152299 51.672456 226.714687 55.841586 226.899366 57.456774 C 226.979176 57.844361 227.223249 57.991732 227.510011 57.991732 C 228.064975 57.991732 228.773992 57.431721 228.773992 56.833394 C 228.773992 56.772972 228.76564 56.714024 228.749863 56.656549 C 228.629219 56.080328 228.531776 55.499685 228.458461 54.916096 C 228.821322 55.987484 229.684393 57.325614 230.69502 57.93131 C 231.027256 58.122892 231.379909 58.246684 231.726993 58.246684 C 231.805876 58.246684 231.881975 58.236368 231.959001 58.227526 C 232.383112 58.168577 232.505613 57.807518 232.505613 57.325614 C 232.505613 56.523915 232.159457 55.380315 232.159457 54.652301 C 232.159457 54.214609 232.282885 53.913972 232.677299 53.913972 L 232.71442 53.924288 C 232.776598 53.924288 232.806295 53.852076 232.806295 53.781338 C 232.806295 53.676704 232.754326 53.554386 232.66245 53.527859 C 232.326502 53.442384 231.981274 53.393751 231.635118 53.386383 C 230.679244 53.386383 230.45466 53.906603 230.45466 54.501983 C 230.45466 55.022203 230.625418 55.60874 230.625418 55.955062 C 230.625418 56.136329 230.579016 56.260121 230.415683 56.260121 L 230.347936 56.251278 C 229.512706 56.111276 228.318328 53.44091 227.833895 50.310746 C 227.756868 50.011583 227.547133 49.887791 227.309556 49.887791 Z M 235.376019 50.073479 C 235.288784 50.072005 235.201549 50.086742 235.119882 50.116217 C 233.856829 50.593699 233.416941 51.840459 233.416941 53.34954 C 233.416941 54.652301 233.740825 56.146645 234.140807 57.534881 C 234.228042 57.894467 234.496244 58.035943 234.811775 58.035943 C 235.406644 58.035943 236.154638 57.536355 236.154638 57.026451 C 236.157423 56.933607 236.133294 56.840763 236.085964 56.761183 C 235.746304 55.85485 235.476246 54.360506 235.476246 53.236064 C 235.476246 52.375417 235.638652 51.718141 236.038634 51.718141 C 236.322612 51.718141 236.742083 52.0512 237.305399 52.85732 C 237.788905 53.564702 238.244569 54.397349 238.420895 54.880726 C 238.484001 55.020729 238.652903 55.084099 238.823661 55.084099 C 239.015764 55.084099 239.200443 55.004518 239.200443 54.87041 L 239.184666 54.811462 C 238.955442 54.133555 238.575876 53.386383 238.128565 52.702581 C 237.605154 51.902355 236.346741 50.073479 235.376019 50.073479 Z M 236.123085 59.220807 C 235.690622 59.220807 235.091113 59.547971 235.028006 59.811766 C 235.005734 59.914926 234.996453 60.021033 234.999237 60.12714 C 234.999237 60.822732 235.323121 61.911805 235.661853 62.317076 C 235.722175 62.395182 235.854884 62.421709 236.007081 62.421709 C 236.510075 62.421709 237.31004 62.08865 237.31004 61.665695 L 237.31004 61.655379 C 237.31004 61.015788 236.879432 59.776397 236.462745 59.338704 C 236.386647 59.25765 236.263218 59.220807 236.123085 59.220807 Z M 239.878835 49.537048 C 238.929457 49.537048 238.136917 50.001267 238.136917 51.137499 C 238.136917 51.339397 238.160118 51.576665 238.221368 51.831617 C 238.252921 51.980462 238.344796 52.042358 238.429247 52.042358 C 238.528547 52.042358 238.62135 51.973093 238.644551 51.846354 C 238.744778 51.472031 239.100215 51.321713 239.500197 51.321713 C 240.235199 51.321713 241.151168 51.796248 241.151168 52.269309 C 241.135391 52.981112 238.097011 53.236064 238.097011 55.408315 C 238.097011 55.60874 238.128565 55.822428 238.182391 56.059696 C 238.612998 57.876782 240.318722 58.687324 241.661586 58.687324 C 242.137667 58.687324 242.57013 58.591532 242.885662 58.397003 C 243.341326 58.122892 243.512084 57.508354 243.512084 56.938028 C 243.512084 56.286647 243.295852 55.689794 243.017442 55.689794 C 242.95712 55.689794 242.893086 55.716321 242.825339 55.785585 C 242.785434 56.456124 242.301001 56.734656 241.730261 56.734656 C 241.059293 56.734656 240.263968 56.332332 239.987415 55.663267 C 239.905748 55.47758 239.86213 55.277155 239.855634 55.075256 C 239.855634 53.791654 242.222118 53.922814 242.832764 52.561104 C 242.941344 52.323837 242.985889 52.086569 242.985889 51.865512 C 242.985889 50.539172 241.274596 49.537048 239.878835 49.537048 Z M 246.834442 50.001267 C 246.294327 50.001267 245.130573 50.68949 245.068395 51.208237 C 245.020137 51.566349 244.997865 51.927408 244.999721 52.288468 C 244.999721 53.992078 245.370006 56.277805 245.600158 57.704358 C 245.917545 59.670289 246.295255 61.938332 246.295255 62.844664 C 246.295255 63.027405 246.27855 63.151196 246.249781 63.214566 C 246.126353 63.425307 246.069743 63.582994 246.069743 63.69647 C 246.069743 63.852683 246.179251 63.924895 246.350009 63.924895 C 246.973647 63.924895 248.41581 62.959614 248.41581 61.835172 L 248.400962 61.639168 C 248.02882 59.125016 247.265977 56.778867 246.996848 54.028921 C 247.853422 56.979292 249.178653 57.991732 250.267236 57.991732 C 250.514093 57.991732 250.746101 57.941626 250.95398 57.850256 C 251.616596 57.580566 251.832827 56.964555 251.832827 56.233594 C 251.832827 54.898411 251.107106 53.140273 251.107106 52.260467 C 251.107106 52.061516 251.147011 51.911197 251.229606 51.813932 C 251.287144 51.746142 251.372523 51.706351 251.461614 51.709299 C 252.149287 51.709299 253.511639 53.641335 253.975656 54.774619 C 254.060107 54.976518 254.316244 55.085572 254.538972 55.085572 C 254.72365 55.085572 254.878632 55.011887 254.878632 54.861568 C 254.876776 54.829147 254.869351 54.796725 254.855431 54.765777 C 253.915333 52.858794 252.333037 50.179586 250.875097 50.179586 C 250.714548 50.179586 250.551214 50.214955 250.398089 50.28422 C 249.618541 50.634963 249.388389 51.399819 249.388389 52.260467 C 249.388389 53.501332 249.858901 54.942622 249.858901 55.716321 C 249.858901 55.996326 249.795795 56.190856 249.635245 56.251278 C 249.573067 56.276331 249.507177 56.288121 249.440358 56.286647 C 248.192154 56.286647 247.025617 51.874355 247.025617 50.574541 L 247.033969 50.434538 C 247.068306 50.3638 247.086867 50.285693 247.088723 50.206113 C 247.088723 50.06611 246.989423 50.001267 246.834442 50.001267 Z M 246.834442 50.001267 " transform="matrix(4.209172,0,0,-2.65062,0.000235714,499.811713)"/>
<path style=" stroke:none;fill-rule:nonzero;fill:rgb(10.196078%,10.196078%,9.411765%);fill-opacity:1;" d="M 501.246094 371.417969 C 497.09375 371.417969 488.75 369.765625 488.496094 367.019531 C 488.304688 365.011719 488.207031 362.996094 488.195312 360.984375 C 488.195312 353.042969 489.792969 343.023438 496.117188 331.140625 C 494.855469 332.542969 489.925781 337.527344 484.59375 343.164062 C 477.039062 351.148438 468.660156 360.914062 468.660156 366.695312 C 468.660156 367.347656 468.761719 367.949219 468.984375 368.484375 C 469.050781 368.601562 469.050781 368.714844 469.050781 368.808594 C 469.050781 369.324219 468.429688 369.535156 467.488281 369.535156 C 464.339844 369.535156 457.625 367.179688 456.9375 364.316406 C 456.652344 363.171875 456.550781 361.964844 456.550781 360.707031 C 456.550781 349.519531 466.425781 334.75 466.425781 327.714844 C 466.425781 326.226562 465.96875 325.058594 464.863281 324.382812 C 463.917969 323.800781 463.5 323.378906 463.5 323.101562 C 463.5 322.824219 463.917969 322.679688 464.628906 322.679688 C 467.785156 322.679688 476.320312 325.226562 476.417969 328.160156 L 476.417969 328.230469 C 476.417969 333.425781 465.449219 352.171875 465.449219 359.539062 C 465.449219 360.445312 465.605469 361.167969 465.96875 361.683594 C 468.761719 351.96875 490.3125 334.632812 496.152344 323.945312 L 496.085938 323.570312 C 496.085938 322.984375 496.570312 322.753906 497.359375 322.753906 C 500.339844 322.753906 507.421875 326.25 507.421875 328.558594 C 507.421875 328.90625 507.285156 329.207031 506.964844 329.464844 C 503.199219 332.605469 499.042969 341.390625 497.414062 349.988281 C 496.960938 352.5 496.707031 355.019531 496.707031 357.375 C 496.707031 363.21875 498.269531 368.0625 501.871094 369.675781 C 503.03125 370.183594 503.519531 370.582031 503.519531 370.859375 C 503.519531 371.257812 502.609375 371.417969 501.246094 371.417969 Z M 518.355469 367.902344 C 512.617188 367.902344 509.039062 366.152344 507.15625 363.242188 C 506.378906 362.050781 506.058594 360.5625 506.058594 359.054688 C 506.058594 356.15625 507.222656 353.199219 508.617188 352.085938 C 509.890625 350.796875 511.375 350.433594 512.0625 350.105469 C 513.746094 347.003906 517.292969 344.90625 522.378906 344.90625 C 523.285156 344.90625 524.226562 344.976562 525.234375 345.121094 C 531.375 345.957031 533.160156 350.195312 533.160156 353.96875 C 533.160156 355.785156 532.738281 357.484375 532.21875 358.65625 L 532.25 358.65625 C 535.109375 358.65625 540.792969 356.628906 542.054688 354.742188 C 542.222656 354.457031 542.675781 354.34375 543.15625 354.34375 C 544.097656 354.34375 545.300781 354.742188 545.300781 355.277344 L 545.234375 355.457031 C 541.957031 359.234375 535.785156 361.261719 530.851562 361.820312 C 527.476562 365.5 525.304688 367.109375 520.441406 367.832031 C 519.71875 367.878906 519.011719 367.902344 518.355469 367.902344 Z M 524.75 359.003906 C 525.660156 357.375 526.179688 355.109375 526.179688 352.992188 C 526.179688 349.988281 525.136719 347.285156 522.832031 347.125 L 522.578125 347.125 C 519.652344 347.125 517.261719 350.824219 517.261719 353.898438 L 517.292969 354.34375 C 517.515625 356.484375 520.019531 358.742188 524.75 359.003906 Z M 516.804688 365.199219 C 518.457031 365.199219 520.308594 364.453125 521.636719 363.425781 C 521.957031 363.195312 526.898438 362.121094 526.898438 361.820312 C 526.898438 361.769531 526.734375 361.769531 526.480469 361.769531 L 524.59375 361.796875 C 524.140625 361.796875 523.652344 361.796875 523.199219 361.746094 C 522.480469 361.707031 517.09375 361.191406 514.132812 358.535156 C 513.589844 359.234375 513.226562 360.355469 513.226562 361.492188 C 513.226562 362.964844 513.8125 364.429688 515.210938 364.945312 C 515.699219 365.128906 516.25 365.199219 516.804688 365.199219 Z M 565.679688 366.855469 L 565.070312 366.828125 C 562.433594 366.644531 559.519531 365.453125 559.519531 361.796875 C 559.519531 360.890625 559.707031 359.816406 560.128906 358.558594 C 557.050781 364.222656 552.4375 366.757812 548.671875 366.828125 L 548.484375 366.828125 C 542.933594 366.828125 541.371094 363.363281 541.371094 359.304688 C 541.371094 354.226562 543.875 348.261719 544.164062 347.261719 C 544.449219 346.535156 545.359375 346.234375 546.46875 346.234375 C 548.773438 346.234375 551.917969 347.515625 551.917969 348.960938 C 551.917969 349.105469 551.886719 349.261719 551.820312 349.40625 C 550.976562 351.449219 548.484375 356.882812 548.484375 360.355469 C 548.484375 362.121094 549.125 363.363281 551.007812 363.363281 L 551.175781 363.363281 C 555.230469 363.195312 560.105469 352.992188 561.203125 347.378906 C 561.558594 346.402344 562.53125 346.003906 563.707031 346.003906 C 566.203125 346.003906 569.648438 347.816406 569.746094 349.265625 C 568.347656 353.152344 566.820312 357.8125 566.589844 360.730469 L 566.566406 361.335938 C 566.566406 362.988281 567.175781 363.640625 568.152344 363.640625 C 571.199219 363.640625 577.65625 357.160156 579.1875 354.621094 C 579.453125 354.25 580.164062 354.089844 580.882812 354.089844 C 581.65625 354.089844 582.433594 354.296875 582.433594 354.671875 L 582.367188 354.832031 C 576.292969 362.289062 570.910156 366.855469 565.679688 366.855469 Z M 581.59375 367.578125 C 579.441406 367.578125 576.648438 366.226562 576.648438 364.992188 L 576.648438 364.945312 C 576.714844 362.847656 579.085938 351.800781 579.863281 347.515625 C 580.195312 346.488281 581.226562 346.097656 582.433594 346.097656 C 584.769531 346.097656 587.753906 347.585938 587.753906 349.167969 C 587.753906 349.335938 587.71875 349.472656 587.652344 349.636719 C 587.109375 351.363281 586.710938 352.714844 586.421875 354.25 C 587.949219 351.410156 591.585938 347.863281 595.839844 346.257812 C 597.234375 345.75 598.722656 345.421875 600.183594 345.421875 C 600.515625 345.421875 600.835938 345.449219 601.15625 345.46875 C 602.941406 345.628906 603.460938 346.585938 603.460938 347.863281 C 603.460938 349.988281 602 353.015625 602 354.949219 C 602 356.109375 602.523438 356.90625 604.183594 356.90625 L 604.335938 356.882812 C 604.605469 356.882812 604.726562 357.070312 604.726562 357.253906 C 604.726562 357.535156 604.503906 357.859375 604.117188 357.929688 C 602.398438 358.183594 600.96875 358.304688 599.796875 358.304688 C 595.773438 358.304688 594.832031 356.929688 594.832031 355.347656 C 594.832031 353.96875 595.542969 352.414062 595.542969 351.496094 C 595.542969 351.011719 595.351562 350.6875 594.664062 350.6875 L 594.378906 350.710938 C 590.867188 351.085938 585.835938 358.160156 583.796875 366.457031 C 583.476562 367.25 582.589844 367.578125 581.59375 367.578125 Z M 615.539062 367.082031 C 615.183594 367.082031 614.832031 367.058594 614.464844 366.972656 C 609.148438 365.707031 607.296875 362.398438 607.296875 358.398438 C 607.296875 354.949219 608.660156 350.988281 610.34375 347.308594 C 610.710938 346.351562 611.839844 345.980469 613.167969 345.980469 C 615.671875 345.980469 618.820312 347.308594 618.820312 348.660156 C 618.820312 348.890625 618.753906 349.128906 618.535156 349.359375 C 617.101562 351.761719 615.960938 355.71875 615.960938 358.703125 C 615.960938 360.984375 616.648438 362.726562 618.332031 362.726562 C 619.53125 362.726562 621.292969 361.84375 623.664062 359.703125 C 625.703125 357.835938 627.617188 355.625 628.359375 354.34375 C 628.625 353.972656 629.332031 353.804688 630.054688 353.804688 C 630.863281 353.804688 631.640625 354.019531 631.640625 354.367188 L 631.574219 354.527344 C 630.609375 356.324219 629.011719 358.304688 627.128906 360.117188 C 624.925781 362.242188 619.628906 367.082031 615.539062 367.082031 Z M 618.6875 342.839844 C 616.871094 342.839844 614.34375 341.972656 614.078125 341.273438 C 613.988281 341.039062 613.957031 340.761719 613.957031 340.4375 C 613.957031 338.59375 615.320312 335.707031 616.746094 334.632812 C 617.003906 334.425781 617.558594 334.355469 618.199219 334.355469 C 620.316406 334.355469 623.683594 335.238281 623.683594 336.359375 L 623.683594 336.382812 C 623.683594 338.082031 621.867188 341.367188 620.117188 342.527344 C 619.796875 342.742188 619.277344 342.839844 618.6875 342.839844 Z M 634.5 368.507812 C 630.5 368.507812 627.164062 367.273438 627.164062 364.269531 C 627.164062 363.730469 627.261719 363.101562 627.519531 362.425781 C 627.652344 362.035156 628.039062 361.867188 628.394531 361.867188 C 628.816406 361.867188 629.203125 362.050781 629.300781 362.382812 C 629.722656 363.378906 631.21875 363.777344 632.902344 363.777344 C 635.996094 363.777344 639.847656 362.519531 639.847656 361.261719 C 639.78125 359.378906 626.996094 358.703125 626.996094 352.945312 C 626.996094 352.414062 627.128906 351.847656 627.351562 351.21875 C 629.167969 346.402344 636.347656 344.253906 642 344.253906 C 644.003906 344.253906 645.820312 344.507812 647.152344 345.027344 C 649.066406 345.75 649.789062 347.378906 649.789062 348.890625 C 649.789062 350.617188 648.878906 352.199219 647.707031 352.199219 C 647.449219 352.199219 647.183594 352.125 646.894531 351.945312 C 646.730469 350.171875 644.691406 349.429688 642.285156 349.429688 C 639.460938 349.429688 636.117188 350.496094 634.953125 352.269531 C 634.566406 352.875 634.398438 353.390625 634.398438 353.828125 C 634.398438 357.230469 644.359375 356.882812 646.933594 360.492188 C 647.386719 361.121094 647.570312 361.746094 647.570312 362.335938 C 647.570312 365.851562 640.371094 368.507812 634.5 368.507812 Z M 663.769531 367.273438 C 661.5 367.273438 656.601562 365.453125 656.335938 364.078125 C 656.136719 363.128906 656.039062 362.171875 656.050781 361.214844 C 656.050781 356.699219 657.609375 350.640625 658.574219 346.863281 C 659.914062 341.644531 661.5 335.632812 661.5 333.234375 C 661.5 332.746094 661.433594 332.421875 661.3125 332.253906 C 660.792969 331.699219 660.558594 331.277344 660.558594 330.976562 C 660.558594 330.5625 661.011719 330.371094 661.734375 330.371094 C 664.359375 330.371094 670.433594 332.929688 670.433594 335.914062 L 670.367188 336.429688 C 668.800781 343.09375 665.589844 349.3125 664.457031 356.605469 C 668.058594 348.777344 673.644531 346.097656 678.21875 346.097656 C 679.261719 346.097656 680.234375 346.234375 681.113281 346.472656 C 683.902344 347.1875 684.8125 348.820312 684.8125 350.757812 C 684.8125 354.296875 681.753906 358.957031 681.753906 361.285156 C 681.753906 361.820312 681.921875 362.21875 682.273438 362.472656 C 682.542969 362.664062 682.863281 362.75 683.25 362.75 C 686.144531 362.75 691.882812 357.628906 693.832031 354.625 C 694.1875 354.089844 695.261719 353.804688 696.203125 353.804688 C 696.980469 353.804688 697.632812 353.996094 697.632812 354.390625 C 697.625 354.480469 697.589844 354.566406 697.53125 354.644531 C 693.578125 359.703125 686.917969 366.804688 680.78125 366.804688 C 680.085938 366.800781 679.402344 366.707031 678.773438 366.527344 C 675.496094 365.597656 674.519531 363.570312 674.519531 361.289062 C 674.519531 358.003906 676.503906 354.179688 676.503906 352.125 C 676.503906 351.386719 676.238281 350.871094 675.5625 350.710938 C 675.300781 350.644531 675.023438 350.613281 674.742188 350.617188 C 669.488281 350.617188 664.582031 362.3125 664.582031 365.753906 L 664.613281 366.128906 C 664.78125 366.359375 664.847656 366.574219 664.847656 366.734375 C 664.847656 367.109375 664.425781 367.273438 663.769531 367.273438 Z M 739.285156 371.816406 C 736.589844 371.816406 729.289062 370.34375 728.3125 366.78125 C 728.269531 366.597656 728.246094 366.410156 728.246094 366.226562 C 728.246094 361.636719 735.714844 340.851562 735.714844 332.167969 C 735.714844 330.066406 735.292969 328.667969 734.1875 328.390625 C 731.882812 328.765625 719.839844 331.300781 719.839844 335.753906 C 719.839844 336.589844 720.292969 337.503906 721.300781 338.480469 C 721.367188 338.527344 721.402344 338.566406 721.402344 338.617188 C 721.402344 338.757812 721.179688 338.894531 721.078125 338.894531 L 721.046875 338.894531 C 718.710938 338.710938 714.90625 334.519531 714.90625 331.164062 C 714.90625 330.234375 715.195312 329.34375 715.917969 328.644531 C 720.691406 323.960938 744.800781 320.375 758.308594 320.375 C 760.445312 320.375 762.296875 320.46875 763.792969 320.652344 C 765.675781 320.890625 768.28125 324.707031 768.28125 326.640625 C 768.28125 327.316406 767.980469 327.761719 767.238281 327.761719 L 767.238281 327.714844 C 767.238281 326.433594 763.152344 325.925781 757.71875 325.925781 C 751.105469 325.925781 742.496094 326.6875 736.910156 327.808594 C 741.921875 329.234375 744.449219 330.210938 744.734375 333.519531 L 744.769531 334.171875 C 744.769531 340.546875 737.886719 357.4375 737.886719 366.203125 C 737.886719 368.714844 738.472656 370.582031 739.9375 371.304688 C 740.160156 371.417969 740.257812 371.511719 740.257812 371.585938 C 740.257812 371.742188 739.90625 371.816406 739.285156 371.816406 Z M 770.386719 367.902344 C 764.648438 367.902344 761.066406 366.152344 759.183594 363.242188 C 758.410156 362.050781 758.089844 360.5625 758.089844 359.054688 C 758.089844 356.15625 759.25 353.199219 760.644531 352.085938 C 761.921875 350.796875 763.40625 350.433594 764.09375 350.105469 C 765.777344 347.003906 769.324219 344.90625 774.40625 344.90625 C 775.316406 344.90625 776.257812 344.976562 777.265625 345.121094 C 783.40625 345.957031 785.1875 350.195312 785.1875 353.96875 C 785.1875 355.785156 784.769531 357.484375 784.246094 358.65625 L 784.28125 358.65625 C 787.136719 358.65625 792.824219 356.628906 794.085938 354.742188 C 794.25 354.457031 794.707031 354.34375 795.183594 354.34375 C 796.125 354.34375 797.332031 354.742188 797.332031 355.277344 L 797.265625 355.457031 C 793.988281 359.234375 787.816406 361.261719 782.882812 361.820312 C 779.503906 365.5 777.332031 367.109375 772.46875 367.832031 C 771.746094 367.878906 771.039062 367.902344 770.386719 367.902344 Z M 776.78125 359.003906 C 777.6875 357.375 778.207031 355.109375 778.207031 352.992188 C 778.207031 349.988281 777.167969 347.285156 774.863281 347.125 L 774.605469 347.125 C 771.679688 347.125 769.285156 350.824219 769.285156 353.898438 L 769.324219 354.34375 C 769.542969 356.484375 772.046875 358.742188 776.78125 359.003906 Z M 768.832031 365.199219 C 770.484375 365.199219 772.335938 364.453125 773.664062 363.425781 C 773.984375 363.195312 778.929688 362.121094 778.929688 361.820312 C 778.929688 361.769531 778.761719 361.769531 778.507812 361.769531 L 776.625 361.796875 C 776.171875 361.796875 775.679688 361.796875 775.226562 361.746094 C 774.507812 361.707031 769.125 361.191406 766.164062 358.535156 C 765.621094 359.234375 765.253906 360.355469 765.253906 361.492188 C 765.253906 362.964844 765.84375 364.429688 767.238281 364.945312 C 767.726562 365.128906 768.277344 365.199219 768.835938 365.199219 Z M 836.734375 373.328125 C 834.308594 373.328125 827.582031 371.742188 826.90625 368.132812 C 826.835938 367.785156 826.800781 367.433594 826.804688 367.082031 C 826.804688 362.425781 830.796875 352.523438 831.671875 348.914062 C 829.917969 348.9375 823.394531 349.660156 823.394531 350.988281 C 822.90625 350.964844 822.585938 350.144531 822.585938 349.128906 C 822.585938 348.101562 822.90625 346.910156 823.625 346.164062 C 824.667969 345.121094 829.433594 344.652344 832.945312 344.324219 C 833.785156 341.367188 836.246094 335.585938 836.246094 332.230469 C 836.246094 330.925781 835.890625 329.972656 834.882812 329.71875 C 832.523438 329.949219 820.699219 331.953125 820.699219 336.5 C 820.699219 337.335938 821.089844 338.21875 821.996094 339.21875 C 822.0625 339.269531 822.0625 339.316406 822.0625 339.363281 C 822.0625 339.507812 821.84375 339.640625 821.742188 339.640625 L 821.710938 339.640625 C 819.46875 339.339844 816.160156 335.214844 816.160156 331.929688 C 816.160156 330.863281 816.480469 329.886719 817.355469 329.136719 C 821.875 325.273438 840.734375 323.03125 852.867188 323.03125 C 856.769531 323.03125 859.945312 323.246094 861.765625 323.730469 C 863.546875 324.054688 865.785156 327.761719 865.785156 329.765625 C 865.785156 330.511719 865.464844 331.023438 864.722656 331.023438 L 864.621094 331.023438 L 864.621094 330.910156 C 864.621094 329.207031 858.296875 328.460938 851.050781 328.460938 C 846.472656 328.460938 841.574219 328.765625 837.640625 329.296875 C 842.582031 331.023438 845.042969 332.167969 845.042969 335.523438 C 845.042969 337.453125 844.234375 340.085938 842.652344 343.953125 C 844.367188 343.925781 846.859375 343.855469 849.042969 343.855469 C 851.050781 343.855469 852.8125 343.925781 853.488281 344.160156 C 854.109375 344.375 854.359375 344.859375 854.359375 345.46875 C 854.359375 347.164062 852.355469 349.796875 850.960938 349.796875 L 850.859375 349.796875 C 850.859375 348.613281 847.714844 348.308594 844.101562 348.308594 C 840.703125 348.308594 836.867188 348.5625 834.761719 348.636719 C 834.761719 348.636719 840.179688 349.84375 840.179688 351.246094 L 840.148438 351.410156 C 838.652344 356 836.058594 364.292969 836.058594 369.160156 C 836.058594 370.933594 836.410156 372.261719 837.289062 372.769531 C 837.519531 372.914062 837.609375 373.023438 837.609375 373.09375 C 837.609375 373.261719 837.289062 373.328125 836.734375 373.328125 Z M 869.988281 367.058594 C 869.664062 367.058594 869.332031 367.035156 869.011719 366.972656 C 864.203125 365.96875 862.71875 362.382812 862.71875 357.835938 C 862.71875 349.890625 867.382812 339.109375 867.382812 334.425781 C 867.382812 333.605469 867.226562 332.976562 866.894531 332.582031 C 866.386719 332.046875 866.152344 331.628906 866.152344 331.324219 C 866.152344 330.886719 866.640625 330.695312 867.382812 330.695312 C 870.085938 330.695312 876.34375 333.257812 876.34375 336.261719 L 876.28125 336.753906 C 875.890625 338.570312 874.363281 342.839844 872.84375 347.703125 C 872.292969 349.472656 870.660156 355.132812 870.660156 359.054688 C 870.660156 361.261719 871.183594 362.917969 872.746094 362.917969 C 873.90625 362.917969 875.671875 361.988281 878.195312 359.703125 C 880.28125 357.835938 882.152344 355.625 882.9375 354.34375 C 883.195312 353.972656 883.914062 353.804688 884.589844 353.804688 C 885.398438 353.804688 886.183594 354.019531 886.183594 354.367188 L 886.117188 354.527344 C 885.140625 356.324219 883.546875 358.304688 881.675781 360.117188 C 879.425781 362.265625 874.140625 367.058594 869.988281 367.058594 Z M 893.554688 367.902344 C 887.816406 367.902344 884.234375 366.152344 882.351562 363.242188 C 881.578125 362.050781 881.257812 360.5625 881.257812 359.054688 C 881.257812 356.15625 882.417969 353.199219 883.8125 352.085938 C 885.089844 350.796875 886.574219 350.433594 887.261719 350.105469 C 888.945312 347.003906 892.492188 344.90625 897.574219 344.90625 C 898.484375 344.90625 899.425781 344.976562 900.433594 345.121094 C 906.574219 345.957031 908.355469 350.195312 908.355469 353.96875 C 908.355469 355.785156 907.9375 357.484375 907.414062 358.65625 L 907.449219 358.65625 C 910.304688 358.65625 915.992188 356.628906 917.253906 354.742188 C 917.417969 354.457031 917.875 354.34375 918.351562 354.34375 C 919.292969 354.34375 920.5 354.742188 920.5 355.277344 L 920.433594 355.457031 C 917.15625 359.234375 910.984375 361.261719 906.050781 361.820312 C 902.671875 365.5 900.5 367.109375 895.636719 367.832031 C 894.917969 367.878906 894.207031 367.902344 893.554688 367.902344 Z M 899.949219 359.003906 C 900.855469 357.375 901.375 355.109375 901.375 352.992188 C 901.375 349.988281 900.335938 347.285156 898.03125 347.125 L 897.773438 347.125 C 894.847656 347.125 892.453125 350.824219 892.453125 353.898438 L 892.492188 354.34375 C 892.710938 356.484375 895.214844 358.742188 899.949219 359.003906 Z M 892.003906 365.199219 C 893.652344 365.199219 895.503906 364.453125 896.832031 363.425781 C 897.152344 363.195312 902.097656 362.121094 902.097656 361.820312 C 902.097656 361.769531 901.929688 361.769531 901.675781 361.769531 L 899.792969 361.796875 C 899.339844 361.796875 898.847656 361.796875 898.394531 361.746094 C 897.675781 361.707031 892.289062 361.191406 889.332031 358.535156 C 888.789062 359.234375 888.425781 360.355469 888.425781 361.492188 C 888.425781 362.964844 889.011719 364.429688 890.40625 364.945312 C 890.894531 365.128906 891.445312 365.199219 892.003906 365.199219 Z M 940.878906 366.855469 L 940.269531 366.828125 C 937.628906 366.644531 934.71875 365.453125 934.71875 361.796875 C 934.71875 360.890625 934.90625 359.816406 935.324219 358.558594 C 932.246094 364.222656 927.636719 366.757812 923.871094 366.828125 L 923.683594 366.828125 C 918.128906 366.828125 916.566406 363.363281 916.566406 359.304688 C 916.566406 354.226562 919.070312 348.261719 919.359375 347.261719 C 919.648438 346.535156 920.554688 346.234375 921.664062 346.234375 C 923.96875 346.234375 927.117188 347.515625 927.117188 348.960938 C 927.117188 349.105469 927.082031 349.261719 927.015625 349.40625 C 926.175781 351.449219 923.679688 356.882812 923.679688 360.355469 C 923.679688 362.121094 924.324219 363.363281 926.207031 363.363281 L 926.375 363.363281 C 930.429688 363.195312 935.304688 352.992188 936.398438 347.378906 C 936.753906 346.402344 937.730469 346.003906 938.90625 346.003906 C 941.398438 346.003906 944.84375 347.816406 944.945312 349.265625 C 943.546875 353.152344 942.019531 357.8125 941.785156 360.730469 L 941.765625 361.335938 C 941.765625 362.988281 942.375 363.640625 943.347656 363.640625 C 946.394531 363.640625 952.855469 357.160156 954.382812 354.621094 C 954.652344 354.25 955.359375 354.089844 956.078125 354.089844 C 956.855469 354.089844 957.628906 354.296875 957.628906 354.671875 L 957.5625 354.832031 C 951.492188 362.289062 946.105469 366.855469 940.878906 366.855469 Z M 956.789062 367.578125 C 954.640625 367.578125 951.847656 366.226562 951.847656 364.992188 L 951.847656 364.945312 C 951.914062 362.847656 954.285156 351.800781 955.0625 347.515625 C 955.390625 346.488281 956.421875 346.097656 957.628906 346.097656 C 959.96875 346.097656 962.949219 347.585938 962.949219 349.167969 C 962.949219 349.335938 962.914062 349.472656 962.847656 349.636719 C 962.304688 351.363281 961.90625 352.714844 961.617188 354.25 C 963.148438 351.410156 966.78125 347.863281 971.039062 346.257812 C 972.433594 345.75 973.917969 345.421875 975.382812 345.421875 C 975.714844 345.421875 976.035156 345.449219 976.355469 345.46875 C 978.140625 345.628906 978.660156 346.585938 978.660156 347.863281 C 978.660156 349.988281 977.195312 353.015625 977.195312 354.949219 C 977.195312 356.109375 977.71875 356.90625 979.378906 356.90625 L 979.535156 356.882812 C 979.800781 356.882812 979.921875 357.070312 979.921875 357.253906 C 979.921875 357.535156 979.699219 357.859375 979.316406 357.929688 C 977.597656 358.183594 976.167969 358.304688 974.992188 358.304688 C 970.96875 358.304688 970.027344 356.929688 970.027344 355.347656 C 970.027344 353.96875 970.738281 352.414062 970.738281 351.496094 C 970.738281 351.011719 970.550781 350.6875 969.863281 350.6875 L 969.574219 350.710938 C 966.0625 351.085938 961.03125 358.160156 958.992188 366.457031 C 958.671875 367.25 957.785156 367.578125 956.789062 367.578125 Z M 990.738281 367.082031 C 990.382812 367.082031 990.027344 367.058594 989.664062 366.972656 C 984.34375 365.707031 982.492188 362.398438 982.492188 358.398438 C 982.492188 354.949219 983.855469 350.988281 985.542969 347.308594 C 985.90625 346.351562 987.035156 345.980469 988.367188 345.980469 C 990.871094 345.980469 994.019531 347.308594 994.019531 348.660156 C 994.019531 348.890625 993.949219 349.128906 993.730469 349.359375 C 992.300781 351.761719 991.160156 355.71875 991.160156 358.703125 C 991.160156 360.984375 991.84375 362.726562 993.53125 362.726562 C 994.726562 362.726562 996.488281 361.84375 998.859375 359.703125 C 1000.898438 357.835938 1002.816406 355.625 1003.558594 354.34375 C 1003.824219 353.972656 1004.53125 353.804688 1005.253906 353.804688 C 1006.0625 353.804688 1006.835938 354.019531 1006.835938 354.367188 L 1006.769531 354.527344 C 1005.804688 356.324219 1004.210938 358.304688 1002.328125 360.117188 C 1000.121094 362.242188 994.828125 367.082031 990.738281 367.082031 Z M 993.886719 342.839844 C 992.066406 342.839844 989.542969 341.972656 989.277344 341.273438 C 989.183594 341.039062 989.152344 340.761719 989.152344 340.4375 C 989.152344 338.59375 990.515625 335.707031 991.945312 334.632812 C 992.199219 334.425781 992.753906 334.355469 993.398438 334.355469 C 995.511719 334.355469 998.882812 335.238281 998.882812 336.359375 L 998.882812 336.382812 C 998.882812 338.082031 997.0625 341.367188 995.316406 342.527344 C 994.992188 342.742188 994.472656 342.839844 993.882812 342.839844 Z M 1009.695312 368.507812 C 1005.695312 368.507812 1002.359375 367.273438 1002.359375 364.269531 C 1002.359375 363.730469 1002.460938 363.101562 1002.714844 362.425781 C 1002.847656 362.035156 1003.238281 361.867188 1003.589844 361.867188 C 1004.011719 361.867188 1004.398438 362.050781 1004.5 362.382812 C 1004.917969 363.378906 1006.414062 363.777344 1008.101562 363.777344 C 1011.191406 363.777344 1015.046875 362.519531 1015.046875 361.261719 C 1014.980469 359.378906 1002.195312 358.703125 1002.195312 352.945312 C 1002.195312 352.414062 1002.328125 351.847656 1002.550781 351.21875 C 1004.367188 346.402344 1011.546875 344.253906 1017.195312 344.253906 C 1019.203125 344.253906 1021.019531 344.507812 1022.347656 345.027344 C 1024.265625 345.75 1024.988281 347.378906 1024.988281 348.890625 C 1024.988281 350.617188 1024.078125 352.199219 1022.902344 352.199219 C 1022.648438 352.199219 1022.382812 352.125 1022.09375 351.945312 C 1021.929688 350.171875 1019.890625 349.429688 1017.484375 349.429688 C 1014.660156 349.429688 1011.3125 350.496094 1010.148438 352.269531 C 1009.761719 352.875 1009.597656 353.390625 1009.597656 353.828125 C 1009.597656 357.230469 1019.554688 356.882812 1022.128906 360.492188 C 1022.550781 361.070312 1022.769531 361.699219 1022.769531 362.335938 C 1022.769531 365.851562 1015.566406 368.507812 1009.695312 368.507812 Z M 1038.96875 367.273438 C 1036.699219 367.273438 1031.800781 365.453125 1031.535156 364.078125 C 1031.332031 363.128906 1031.238281 362.171875 1031.246094 361.214844 C 1031.246094 356.699219 1032.808594 350.640625 1033.773438 346.863281 C 1035.113281 341.644531 1036.699219 335.632812 1036.699219 333.234375 C 1036.699219 332.746094 1036.632812 332.421875 1036.511719 332.253906 C 1035.992188 331.699219 1035.753906 331.277344 1035.753906 330.976562 C 1035.753906 330.5625 1036.210938 330.371094 1036.929688 330.371094 C 1039.554688 330.371094 1045.628906 332.929688 1045.628906 335.914062 L 1045.5625 336.429688 C 1044 343.09375 1040.785156 349.3125 1039.65625 356.605469 C 1043.257812 348.777344 1048.839844 346.097656 1053.417969 346.097656 C 1054.457031 346.097656 1055.433594 346.234375 1056.308594 346.472656 C 1059.101562 347.1875 1060.011719 348.820312 1060.011719 350.757812 C 1060.011719 354.296875 1056.953125 358.957031 1056.953125 361.285156 C 1056.953125 361.820312 1057.121094 362.21875 1057.472656 362.472656 C 1057.738281 362.664062 1058.058594 362.75 1058.449219 362.75 C 1061.339844 362.75 1067.078125 357.628906 1069.027344 354.625 C 1069.386719 354.089844 1070.457031 353.804688 1071.402344 353.804688 C 1072.175781 353.804688 1072.832031 353.996094 1072.832031 354.390625 C 1072.824219 354.480469 1072.789062 354.566406 1072.730469 354.644531 C 1068.773438 359.703125 1062.117188 366.804688 1055.976562 366.804688 C 1055.285156 366.800781 1054.601562 366.707031 1053.972656 366.527344 C 1050.691406 365.597656 1049.71875 363.570312 1049.71875 361.289062 C 1049.71875 358.003906 1051.699219 354.179688 1051.699219 352.125 C 1051.699219 351.386719 1051.433594 350.871094 1050.757812 350.710938 C 1050.5 350.644531 1050.21875 350.613281 1049.9375 350.617188 C 1044.6875 350.617188 1039.777344 362.3125 1039.777344 365.753906 L 1039.8125 366.128906 C 1039.976562 366.359375 1040.042969 366.574219 1040.042969 366.734375 C 1040.042969 367.109375 1039.621094 367.273438 1038.96875 367.273438 "/>
<path style="fill:none;stroke-width:4.273;stroke-linecap:butt;stroke-linejoin:round;stroke:rgb(100%,100%,100%);stroke-opacity:1;stroke-miterlimit:4;" d="M -89.829192 85.789168 C -95.030731 85.968278 -100.396387 86.685648 -105.927836 87.943133 C -111.3856 89.179272 -116.761305 90.753216 -122.024806 92.656612 C -127.226344 94.542375 -132.129791 96.636945 -136.73347 98.942179 C -141.33715 101.247413 -145.373115 103.612041 -148.841366 106.035135 C -152.309616 108.460086 -155.044359 110.794088 -157.04727 113.038072 C -159.05018 115.282984 -160.051635 117.30424 -160.051635 119.098127 C -160.051635 121.673419 -159.572679 123.976797 -158.616439 126.012901 C -157.6602 128.048077 -155.866624 129.274937 -153.235711 129.692552 C -149.527982 125.204584 -145.297755 121.163929 -140.546704 117.573369 C -135.792303 113.980954 -130.649379 110.79316 -125.119604 108.00999 C -119.589829 105.226819 -113.730144 102.817645 -107.540548 100.781541 C -101.314109 98.737084 -94.982165 97.028575 -88.573187 95.665295 C -86.364291 95.18643 -84.1353 94.811505 -81.891236 94.542375 C -79.650522 94.272317 -77.632539 94.169306 -75.837289 94.227772 C -74.043712 94.288094 -72.578372 94.542375 -71.442943 94.991543 C -70.307514 95.439783 -69.739799 96.14416 -69.739799 97.10189 C -69.739799 98.179336 -69.470177 98.971876 -68.932606 99.481367 C -68.393361 99.989001 -67.78043 100.183887 -67.093814 100.064171 C -66.405523 99.944455 -65.794267 99.540761 -65.255022 98.85216 C -64.717451 98.16356 -64.447829 97.162212 -64.447829 95.844405 C -64.447829 93.510402 -64.642091 91.623711 -65.030615 90.188044 C -65.420814 88.751449 -66.077287 87.583984 -67.003382 86.685648 C -67.931151 85.789168 -69.185482 85.026325 -70.771399 84.396191 C -72.355641 83.767912 -74.343479 83.096016 -76.734914 82.375863 C -80.037372 81.382867 -83.373323 80.500308 -86.734394 79.728185 C -90.232789 78.919868 -94.104636 78.185794 -98.348261 77.527819 C -102.59356 76.869843 -107.361358 76.330656 -112.653328 75.912113 C -117.943625 75.491714 -123.967428 75.222585 -130.724739 75.103796 C -118.467798 70.553651 -108.064721 66.618791 -99.515509 63.297361 C -90.964622 59.975003 -83.999651 56.68327 -78.617248 53.420306 C -73.236519 50.15827 -69.336203 46.597408 -66.914624 42.735862 C -64.493045 38.876173 -63.282255 34.132069 -63.282255 28.505405 C -63.282255 26.29019 -63.910258 24.330184 -65.164589 22.625388 C -66.420595 20.917807 -68.080197 19.450587 -70.143396 18.224656 C -72.189848 16.996868 -74.507597 15.964895 -77.078222 15.126881 C -79.6321 14.293508 -82.237894 13.632748 -84.88053 13.151099 C -87.39924 12.685227 -89.938046 12.340926 -92.488575 12.119127 C -94.940298 11.909391 -97.063785 11.805451 -98.857362 11.805451 C -102.370828 11.805451 -106.225928 12.163672 -110.41094 12.88197 C -114.662938 13.618828 -118.854647 14.669361 -122.950901 16.025217 C -127.135912 17.400562 -131.20872 19.096078 -135.134156 21.096918 C -139.079689 23.103325 -142.563012 25.391854 -145.582449 27.967146 C -148.586815 30.539653 -151.008394 33.397995 -152.832114 36.541242 C -154.655835 39.682634 -155.566858 43.051394 -155.566858 46.641025 C -155.566858 49.335105 -154.984071 51.534543 -153.803426 53.241196 C -152.669671 54.918151 -151.125621 56.27772 -149.318648 57.190904 C -147.509999 58.118937 -145.492017 58.762992 -143.281447 59.121213 C -141.067527 59.481289 -138.945715 59.661328 -136.91266 59.661328 C -133.863079 59.661328 -130.739811 59.317028 -127.541183 58.628427 C -124.345904 57.940755 -121.210914 56.995089 -118.169706 55.799783 C -115.120124 54.60262 -112.179396 53.145608 -109.37934 51.445452 C -106.651296 49.799121 -104.072297 47.921711 -101.667465 45.832708 C -100.805008 45.087498 -100.051404 44.226283 -99.425076 43.27505 C -98.766929 42.286694 -98.319791 41.254722 -98.080313 40.177275 C -97.840834 39.099829 -97.854232 37.992686 -98.123854 36.854917 C -98.393477 35.718077 -99.006408 34.670328 -99.962647 33.712598 C -100.022935 33.592882 -100.815056 33.966879 -102.340684 34.83459 C -104.308426 35.951941 -106.281193 37.059085 -108.258983 38.156948 C -110.978654 39.665929 -113.715072 41.14707 -116.464887 42.601298 C -119.50777 44.214219 -122.604243 45.726913 -125.747607 47.135667 C -128.778767 48.500803 -131.876915 49.713742 -135.030327 50.7717 C -138.078234 51.788824 -140.784507 52.357708 -143.145798 52.478353 C -145.508764 52.598069 -147.40617 52.163749 -148.841366 51.176322 C -150.276561 50.187967 -150.993322 48.436769 -150.993322 45.922728 C -150.993322 42.750711 -149.782533 39.757805 -147.360953 36.944937 C -144.939374 34.132069 -141.755819 31.58833 -137.810286 29.312793 C -133.864753 27.038185 -129.379975 25.078179 -124.357627 23.431849 C -119.310159 21.77995 -114.155511 20.475135 -108.930527 19.525758 C -103.670375 18.568028 -98.527451 18.01492 -93.506777 17.866435 C -88.482754 17.716093 -83.999651 18.01492 -80.052444 18.762915 C -76.106911 19.510909 -72.923355 20.752617 -70.501776 22.488967 C -68.080197 24.225317 -66.869408 26.498997 -66.869408 29.312793 C -66.869408 31.34797 -68.693128 33.592882 -72.338894 36.046601 C -75.986335 38.501248 -81.442423 41.433832 -88.707161 44.847137 C -95.971898 48.256731 -105.030211 52.282538 -115.882101 56.921774 C -126.73399 61.561939 -139.394528 67.082807 -153.863714 73.488091 C -154.103192 73.607807 -154.431428 73.563262 -154.850097 73.352598 L -156.104428 72.72432 C -156.524771 72.513656 -156.883152 72.38002 -157.181244 72.320626 C -157.48101 72.261231 -157.630056 72.44127 -157.630056 72.858885 C -157.630056 75.552036 -157.092486 77.588141 -156.01567 78.965342 C -154.938855 80.340686 -153.250783 81.315121 -150.94978 81.883077 C -148.645429 82.451033 -145.686279 82.765637 -142.068983 82.825959 C -138.451686 82.886281 -134.132701 82.945675 -129.110353 83.005069 C -124.088005 83.065391 -118.318752 83.260278 -111.800919 83.588802 C -105.284762 83.918254 -97.959736 84.6514 -89.829192 85.789168 Z M -89.829192 85.789168 " transform="matrix(0,2.332543,4.209172,0,0.000235714,499.811713)"/>
<path style=" stroke:none;fill-rule:nonzero;fill:rgb(91.372549%,30.196078%,3.529412%);fill-opacity:1;" d="M 361.097656 290.28125 C 361.855469 278.148438 364.878906 265.632812 370.167969 252.730469 C 375.460938 239.832031 382.074219 227.316406 390.007812 215.183594 C 397.945312 203.050781 406.765625 191.613281 416.464844 180.875 C 426.164062 170.136719 436.117188 160.722656 446.320312 152.632812 C 456.523438 144.542969 466.351562 138.164062 475.796875 133.492188 C 485.246094 128.820312 493.753906 126.484375 501.308594 126.484375 C 512.144531 126.484375 521.839844 127.601562 530.410156 129.832031 C 538.976562 132.0625 544.140625 136.246094 545.90625 142.382812 C 527.007812 151.03125 510 160.898438 494.886719 171.984375 C 479.769531 183.070312 466.351562 195.066406 454.632812 207.964844 C 442.921875 220.867188 432.777344 234.53125 424.210938 248.96875 C 415.632812 263.429688 408.4375 278.207031 402.667969 293.210938 C 400.660156 298.351562 399.082031 303.550781 397.945312 308.796875 C 396.8125 314.027344 396.371094 318.734375 396.625 322.917969 C 396.875 327.101562 397.945312 330.515625 399.835938 333.167969 C 401.722656 335.816406 404.6875 337.140625 408.71875 337.140625 C 413.25 337.140625 416.589844 337.769531 418.730469 339.023438 C 420.875 340.28125 421.691406 341.710938 421.1875 343.3125 C 420.683594 344.917969 418.984375 346.347656 416.085938 347.601562 C 413.1875 348.855469 408.96875 349.484375 403.425781 349.484375 C 393.601562 349.484375 385.664062 349.03125 379.617188 348.125 C 373.570312 347.21875 368.65625 345.683594 364.878906 343.523438 C 361.097656 341.359375 357.886719 338.433594 355.242188 334.734375 C 352.59375 331.039062 349.761719 326.402344 346.738281 320.824219 C 342.707031 313.433594 338.992188 305.65625 335.589844 297.5 C 332.1875 289.339844 329.101562 280.308594 326.332031 270.410156 C 323.558594 260.507812 321.289062 249.386719 319.527344 237.042969 C 317.765625 224.699219 316.628906 210.648438 316.125 194.890625 C 296.980469 223.480469 280.410156 247.746094 266.429688 267.6875 C 252.445312 287.632812 238.589844 303.878906 224.855469 316.429688 C 211.125 328.984375 196.136719 338.082031 179.882812 343.730469 C 163.632812 349.378906 143.664062 352.203125 119.980469 352.203125 C 110.660156 352.203125 102.40625 350.738281 95.226562 347.808594 C 88.046875 344.882812 81.875 341.011719 76.710938 336.199219 C 71.542969 331.425781 67.199219 326.019531 63.671875 320.023438 C 60.175781 314.097656 57.398438 308.011719 55.359375 301.824219 C 53.339844 295.722656 51.890625 289.792969 51.011719 284.078125 C 50.128906 278.359375 49.6875 273.40625 49.6875 269.222656 C 49.6875 261.03125 51.199219 252.035156 54.222656 242.273438 C 57.246094 232.511719 61.65625 222.785156 67.449219 213.019531 C 73.292969 203.1875 80.4375 193.683594 88.804688 184.605469 C 97.246094 175.402344 106.882812 167.277344 117.714844 160.234375 C 128.546875 153.226562 140.578125 147.578125 153.808594 143.324219 C 167.035156 139.070312 181.207031 136.945312 196.324219 136.945312 C 207.660156 136.945312 216.921875 138.304688 224.101562 141.058594 C 231.28125 143.777344 236.824219 147.265625 240.726562 151.519531 C 244.636719 155.738281 247.34375 160.441406 248.855469 165.605469 C 250.367188 170.765625 251.121094 175.714844 251.121094 180.457031 C 251.121094 187.566406 249.675781 194.855469 246.773438 202.316406 C 243.859375 209.816406 239.875 217.132812 234.871094 224.179688 C 229.832031 231.289062 223.722656 238.125 216.542969 244.679688 C 209.363281 251.234375 201.488281 257.230469 192.921875 262.667969 C 189.898438 264.621094 186.308594 266.363281 182.152344 267.898438 C 177.992188 269.433594 173.648438 270.480469 169.113281 271.035156 C 164.578125 271.59375 159.917969 271.558594 155.128906 270.933594 C 150.34375 270.304688 145.933594 268.875 141.902344 266.644531 C 141.398438 266.503906 142.972656 264.65625 146.625 261.101562 C 150.277344 257.542969 154.941406 252.941406 160.609375 247.292969 C 166.277344 241.644531 172.511719 235.265625 179.316406 228.152344 C 186.082031 221.078125 192.449219 213.859375 198.402344 206.5 C 204.320312 199.179688 209.425781 191.960938 213.707031 184.851562 C 217.992188 177.738281 220.382812 171.425781 220.886719 165.917969 C 221.394531 160.410156 219.566406 155.980469 215.40625 152.632812 C 211.253906 149.285156 203.878906 147.613281 193.300781 147.613281 C 179.945312 147.613281 167.347656 150.4375 155.507812 156.085938 C 143.664062 161.734375 132.957031 169.160156 123.382812 178.363281 C 113.8125 187.566406 105.558594 198.027344 98.628906 209.742188 C 91.703125 221.457031 86.207031 233.484375 82.191406 245.722656 C 78.15625 257.996094 75.828125 269.992188 75.199219 281.707031 C 74.566406 293.421875 75.828125 303.878906 78.976562 313.085938 C 82.125 322.289062 87.355469 329.714844 94.660156 335.363281 C 101.96875 341.011719 111.542969 343.835938 123.382812 343.835938 C 131.949219 343.835938 141.398438 339.582031 151.726562 331.074219 C 162.058594 322.566406 174.402344 309.84375 188.765625 292.898438 C 203.125 275.953125 220.070312 254.824219 239.59375 229.511719 C 259.121094 204.199219 282.363281 174.667969 309.324219 140.917969 C 309.828125 140.359375 309.640625 139.59375 308.757812 138.617188 L 306.109375 135.6875 C 305.226562 134.710938 304.660156 133.875 304.410156 133.179688 C 304.15625 132.480469 304.914062 132.132812 306.675781 132.132812 C 318.011719 132.132812 326.582031 133.390625 332.375 135.898438 C 338.171875 138.410156 342.265625 142.347656 344.660156 147.71875 C 347.050781 153.085938 348.375 159.988281 348.625 168.429688 C 348.878906 176.867188 349.132812 186.941406 349.382812 198.65625 C 349.636719 210.371094 350.453125 223.828125 351.839844 239.03125 C 353.226562 254.230469 356.3125 271.316406 361.097656 290.28125 "/>
<path style="fill:none;stroke-width:2.151;stroke-linecap:butt;stroke-linejoin:round;stroke:rgb(100%,100%,100%);stroke-opacity:1;stroke-miterlimit:4;" d="M -87.240146 127.838342 L -106.336457 131.182045 L -106.336457 121.059989 L -93.786448 118.800229 C -91.438554 118.392822 -90.174175 117.217933 -90.174175 115.863005 C -90.174175 114.416201 -91.031608 113.783283 -92.205555 113.783283 C -92.56561 113.783283 -93.198637 113.828756 -93.741232 113.918775 L -106.334782 116.13399 L -106.334782 105.964605 L -92.069907 103.479333 C -91.123716 103.299294 -89.99331 103.209275 -89.045445 103.209275 C -85.389631 103.209275 -82.048656 105.197122 -82.048656 110.484125 C -82.048656 113.466823 -83.718306 116.179464 -85.659253 117.534392 L -85.659253 117.715358 C -84.847036 117.625339 -83.492225 117.445301 -82.589575 117.398899 L -82.589575 127.160878 C -84.148697 127.3205 -85.70112 127.546012 -87.240146 127.83927 Z M -87.240146 127.838342 " transform="matrix(0,2.332543,4.209172,0,0.000235714,499.811713)"/>
<path style=" stroke:none;fill-rule:nonzero;fill:rgb(91.372549%,30.196078%,3.529412%);fill-opacity:1;" d="M 538.09375 296.320312 L 552.167969 251.78125 L 509.558594 251.78125 L 500.046875 281.050781 C 498.335938 286.527344 493.386719 289.476562 487.679688 289.476562 C 481.59375 289.476562 478.933594 287.476562 478.933594 284.738281 C 478.933594 283.894531 479.121094 282.421875 479.503906 281.15625 L 488.824219 251.777344 L 446.023438 251.777344 L 435.558594 285.054688 C 434.800781 287.265625 434.417969 289.898438 434.417969 292.109375 C 434.417969 300.636719 442.789062 308.429688 465.046875 308.429688 C 477.601562 308.429688 489.011719 304.53125 494.71875 300.003906 L 495.480469 300.003906 C 495.101562 301.902344 494.339844 305.058594 494.148438 307.167969 L 535.238281 307.167969 C 535.8125 303.796875 537.140625 298.953125 538.09375 296.320312 "/>
<path style="fill:none;stroke-width:2.151;stroke-linecap:butt;stroke-linejoin:round;stroke:rgb(100%,100%,100%);stroke-opacity:1;stroke-miterlimit:4;" d="M -99.066696 149.756625 L -106.336457 151.02339 L -106.336457 146.458396 L -111.707137 147.406845 L -111.707137 137.600321 L -106.336457 136.650015 L -106.336457 133.30724 L -99.066696 132.041403 L -99.066696 135.566073 L -90.35504 133.984704 C -89.633255 133.849212 -88.68539 133.759192 -88.052363 133.759192 C -83.177386 133.759192 -81.958223 137.781287 -81.958223 141.803382 C -81.958223 143.655736 -82.319953 146.006444 -82.77044 146.773927 L -89.723688 147.99429 C -89.588039 147.542338 -89.452391 146.729381 -89.452391 146.006444 C -89.452391 144.739679 -89.812446 144.017669 -91.167257 144.017669 C -91.438554 144.017669 -92.02469 144.063142 -92.38642 144.107688 L -99.066696 145.328051 Z M -99.066696 149.756625 " transform="matrix(0,2.332543,4.209172,0,0.000235714,499.811713)"/>
<path style=" stroke:none;fill-rule:nonzero;fill:rgb(91.372549%,30.196078%,3.529412%);fill-opacity:1;" d="M 630.351562 268.730469 L 635.679688 251.78125 L 616.464844 251.78125 L 620.460938 239.25 L 579.179688 239.25 L 575.1875 251.78125 L 561.113281 251.78125 L 555.785156 268.730469 L 570.621094 268.730469 L 563.964844 289.054688 C 563.394531 290.738281 563.011719 292.953125 563.011719 294.425781 C 563.011719 305.796875 579.945312 308.640625 596.875 308.640625 C 604.671875 308.640625 614.5625 307.796875 617.796875 306.746094 L 622.9375 290.527344 C 621.03125 290.84375 617.609375 291.160156 614.5625 291.160156 C 609.238281 291.160156 606.195312 290.316406 606.195312 287.160156 C 606.195312 286.527344 606.386719 285.160156 606.574219 284.316406 L 611.710938 268.734375 Z M 630.351562 268.730469 "/>
<path style="fill:none;stroke-width:2.151;stroke-linecap:butt;stroke-linejoin:round;stroke:rgb(100%,100%,100%);stroke-opacity:1;stroke-miterlimit:4;" d="M -101.685886 153.416787 L -82.589575 150.026682 L -82.589575 160.150594 L -94.101286 162.184842 C -96.313531 162.592249 -98.254479 164.354583 -98.254479 167.472774 C -98.254479 168.150238 -98.209263 169.008669 -98.028398 169.597042 L -106.60608 171.494869 C -106.741728 171.088391 -106.832161 170.365453 -106.832161 169.597042 C -106.832161 166.885329 -105.386917 164.942028 -103.445969 163.540699 L -103.445969 163.405206 C -104.403883 163.575964 -105.368495 163.711457 -106.336457 163.811684 L -106.336457 154.095179 C -104.777335 153.936485 -103.224912 153.710045 -101.685886 153.416787 Z M -101.685886 153.416787 " transform="matrix(0,2.332543,4.209172,0,0.000235714,499.811713)"/>
<path style=" stroke:none;fill-rule:nonzero;fill:rgb(91.372549%,30.196078%,3.529412%);fill-opacity:1;" d="M 645.761719 262.625 L 631.496094 307.167969 L 674.105469 307.167969 L 682.664062 280.316406 C 684.378906 275.15625 691.796875 270.628906 704.921875 270.628906 C 707.777344 270.628906 711.390625 270.734375 713.863281 271.152344 L 721.851562 251.148438 C 720.140625 250.832031 717.097656 250.621094 713.863281 250.621094 C 702.449219 250.621094 694.269531 253.992188 688.375 258.519531 L 687.800781 258.519531 C 688.375 256.9375 689.324219 253.042969 689.511719 251.78125 L 648.617188 251.78125 C 648.046875 255.148438 646.714844 259.992188 645.761719 262.625 "/>
<path style="fill:none;stroke-width:2.151;stroke-linecap:butt;stroke-linejoin:round;stroke:rgb(100%,100%,100%);stroke-opacity:1;stroke-miterlimit:4;" d="M -82.589575 180.081958 L -106.334782 184.28502 L -106.334782 174.16018 L -82.59125 169.957118 Z M -108.09654 179.810973 C -108.09654 183.201077 -110.714056 185.505383 -113.919382 185.505383 C -116.222059 185.505383 -118.298656 183.471135 -118.298656 180.53391 C -118.298656 177.09926 -115.679465 174.794026 -112.475813 174.794026 C -110.173136 174.794026 -108.094865 176.738255 -108.094865 179.810973 Z M -108.09654 179.810973 " transform="matrix(0,2.332543,4.209172,0,0.000235714,499.811713)"/>
<path style=" stroke:none;fill-rule:nonzero;fill:rgb(91.372549%,30.196078%,3.529412%);fill-opacity:1;" d="M 757.996094 307.167969 L 775.6875 251.78125 L 733.074219 251.78125 L 715.382812 307.167969 Z M 756.855469 247.671875 C 771.121094 247.671875 780.824219 241.566406 780.824219 234.089844 C 780.824219 228.71875 772.265625 223.875 759.898438 223.875 C 745.441406 223.875 735.738281 229.984375 735.738281 237.460938 C 735.738281 242.828125 743.921875 247.671875 756.855469 247.671875 "/>
<path style="fill:none;stroke-width:2.151;stroke-linecap:butt;stroke-linejoin:round;stroke:rgb(100%,100%,100%);stroke-opacity:1;stroke-miterlimit:4;" d="M -82.589575 195.221888 L -106.334782 199.424021 L -106.334782 189.301038 L -82.59125 185.097976 Z M -108.09654 194.949974 C -108.09654 198.340079 -110.714056 200.645313 -113.919382 200.645313 C -116.222059 200.645313 -118.298656 198.611065 -118.298656 195.67384 C -118.298656 192.23919 -115.679465 189.933956 -112.475813 189.933956 C -110.173136 189.933956 -108.094865 191.877257 -108.094865 194.950903 Z M -108.09654 194.949974 " transform="matrix(0,2.332543,4.209172,0,0.000235714,499.811713)"/>
<path style=" stroke:none;fill-rule:nonzero;fill:rgb(91.372549%,30.196078%,3.529412%);fill-opacity:1;" d="M 821.722656 307.167969 L 839.414062 251.78125 L 796.800781 251.78125 L 779.113281 307.167969 Z M 820.582031 247.671875 C 834.847656 247.671875 844.550781 241.566406 844.550781 234.089844 C 844.550781 228.71875 835.992188 223.875 823.625 223.875 C 809.167969 223.875 799.464844 229.984375 799.464844 237.460938 C 799.464844 242.828125 807.648438 247.671875 820.582031 247.671875 "/>
<path style="fill:none;stroke-width:2.151;stroke-linecap:butt;stroke-linejoin:round;stroke:rgb(100%,100%,100%);stroke-opacity:1;stroke-miterlimit:4;" d="M -81.867791 213.79554 C -81.867791 223.332007 -88.457634 228.709958 -96.44918 228.709958 C -103.355537 228.709958 -107.058242 223.015548 -107.058242 215.604276 C -107.058242 206.248776 -100.466724 200.870825 -92.476852 200.870825 C -85.570496 200.870825 -81.867791 206.565235 -81.867791 213.79554 Z M -95.365666 218.85796 C -92.522069 218.85796 -90.174175 217.140171 -90.174175 214.24842 C -90.174175 211.987732 -91.619419 210.722823 -93.605583 210.722823 C -96.403964 210.722823 -98.795399 212.530631 -98.795399 215.287817 C -98.795399 217.637597 -97.306613 218.85796 -95.365666 218.85796 Z M -95.365666 218.85796 " transform="matrix(0,2.332543,4.209172,0,0.000235714,499.811713)"/>
<path style=" stroke:none;fill-rule:nonzero;fill:rgb(91.372549%,30.196078%,3.529412%);fill-opacity:1;" d="M 899.90625 308.847656 C 940.042969 308.847656 962.683594 293.476562 962.683594 274.839844 C 962.683594 258.730469 938.714844 250.09375 907.515625 250.09375 C 868.136719 250.09375 845.5 265.46875 845.5 284.105469 C 845.5 300.214844 869.46875 308.847656 899.90625 308.847656 Z M 921.214844 277.367188 C 921.214844 284 913.984375 289.476562 901.808594 289.476562 C 892.296875 289.476562 886.96875 286.105469 886.96875 281.472656 C 886.96875 274.945312 894.578125 269.363281 906.183594 269.363281 C 916.078125 269.363281 921.214844 272.839844 921.214844 277.367188 "/>
</g>
</svg>
